<svg width="199" height="197" viewBox="0 0 199 197" fill="none" xmlns="http://www.w3.org/2000/svg">
<path d="M31.3325 150.582C32.9472 141.64 36.7292 127.38 45.3992 115.242C58.7792 96.5104 71.9645 86.6366 81.4382 81.4877C81.4382 81.4877 56.3369 83.7521 39.4507 109.994C32.6165 120.615 30.7355 131.333 30.4826 139.086C30.2565 146.02 31.3325 150.582 31.3325 150.582Z" fill="#6A59CE"/>
<path d="M95.0845 189.461L143.385 168.719C164.013 158.629 163.955 150.709 157.563 140.872C157.56 142.242 157.437 143.4 157.19 144.284C151.767 163.703 106.805 177.348 90.3604 175.774C74.5128 174.257 80.0386 175.774 64.4684 171.575L57.4705 174.724C57.4705 174.724 47.071 170.852 41.0256 167.202C36.5451 164.496 30.1789 159.329 30.1789 159.329C30.1789 159.329 30.3733 155.893 31.3325 150.582C31.3325 150.582 30.2565 146.02 30.4826 139.086L17.1467 146.822C12.8448 149.317 10.3161 152.419 9.48842 155.65C7.92689 161.747 14.7712 167.167 20.4627 169.853L61.1061 189.033C71.2669 193.449 85.0258 193.622 95.0845 189.461Z" fill="#887AD8"/>
<path d="M143.385 168.719L95.0845 189.461C85.0258 193.622 71.2669 193.449 61.1061 189.033L20.4627 169.853C14.7712 167.167 7.92689 161.747 9.48842 155.65C9.48842 155.65 6.08111 162.965 11.3368 168.558C16.5924 174.151 59.8995 192.836 59.8995 192.836C70.3218 197.596 84.7995 197.765 95.0845 193.245L146.902 170.478C162.784 162.965 168.037 151.456 157.516 139.252C157.532 139.536 157.544 139.814 157.552 140.085C157.56 140.354 157.563 140.617 157.563 140.872C163.955 150.709 164.013 158.629 143.385 168.719Z" fill="#6A59CE"/>
<path d="M90.3604 175.774C106.805 177.348 151.767 163.703 157.19 144.284C157.437 143.4 157.56 142.242 157.563 140.872C157.563 140.617 157.56 140.354 157.552 140.085C157.544 139.814 157.532 139.536 157.516 139.252C157.006 130.204 152.308 114.46 144.337 105.096C144.337 105.096 125.501 106.32 106.63 127.489C88.3833 147.957 90.3604 175.774 90.3604 175.774Z" fill="#A69BE2"/>
<path d="M64.4684 171.575C80.0386 175.774 74.5128 174.257 90.3604 175.774C90.3604 175.774 88.3833 147.957 106.63 127.489C125.501 106.32 144.337 105.096 144.337 105.096C143.101 103.643 141.786 102.344 140.395 101.247C140.395 101.247 120.976 85.8514 87.7359 120.141C61.4925 147.213 64.4684 171.575 64.4684 171.575Z" fill="#A69BE2"/>
<path d="M57.4705 174.724L64.4684 171.575C64.4684 171.575 61.4925 147.213 87.7359 120.141C120.976 85.8514 140.395 101.247 140.395 101.247L136.371 90.9249C136.371 90.9249 116.077 83.927 81.9627 117.692C56.5951 147.957 57.4705 174.724 57.4705 174.724Z" fill="#A69BE2"/>
<path d="M30.1789 159.329C30.1789 159.329 36.5451 164.496 41.0256 167.202C47.071 170.852 57.4705 174.724 57.4705 174.724C57.4705 174.724 56.5951 147.957 81.9627 117.692C116.077 83.927 136.371 90.9249 136.371 90.9249C136.371 90.9249 127.42 84.3473 120.976 81.4778C110.304 76.7255 95.4339 76.0544 95.4339 76.0544C95.4339 76.0544 89.9256 76.8748 81.4382 81.4877C71.9645 86.6366 58.7792 96.5104 45.3992 115.242C36.7292 127.38 32.9472 141.64 31.3325 150.582C30.3733 155.893 30.1789 159.329 30.1789 159.329Z" fill="#887AD8"/>
<path d="M57.4705 174.724C57.4705 174.724 47.071 170.852 41.0256 167.202C36.5451 164.496 30.1789 159.329 30.1789 159.329C30.1789 159.329 30.3733 155.893 31.3325 150.582M57.4705 174.724L64.4684 171.575M57.4705 174.724C57.4705 174.724 56.5951 147.957 81.9627 117.692C116.077 83.927 136.371 90.9249 136.371 90.9249M64.4684 171.575C80.0386 175.774 74.5128 174.257 90.3604 175.774M64.4684 171.575C64.4684 171.575 61.4925 147.213 87.7359 120.141C120.976 85.8514 140.395 101.247 140.395 101.247M90.3604 175.774C106.805 177.348 151.767 163.703 157.19 144.284C157.437 143.4 157.56 142.242 157.563 140.872M90.3604 175.774C90.3604 175.774 88.3833 147.957 106.63 127.489C125.501 106.32 144.337 105.096 144.337 105.096M140.395 101.247L136.371 90.9249M140.395 101.247C141.786 102.344 143.101 103.643 144.337 105.096M136.371 90.9249C136.371 90.9249 127.42 84.3473 120.976 81.4778C110.304 76.7255 95.4339 76.0544 95.4339 76.0544C95.4339 76.0544 89.9256 76.8748 81.4382 81.4877M31.3325 150.582C32.9472 141.64 36.7292 127.38 45.3992 115.242C58.7792 96.5104 71.9645 86.6366 81.4382 81.4877M31.3325 150.582C31.3325 150.582 30.2565 146.02 30.4826 139.086M81.4382 81.4877C81.4382 81.4877 56.3369 83.7521 39.4507 109.994C32.6165 120.615 30.7355 131.333 30.4826 139.086M144.337 105.096C152.308 114.46 157.006 130.204 157.516 139.252M157.563 140.872C163.955 150.709 164.013 158.629 143.385 168.719L95.0845 189.461C85.0258 193.622 71.2669 193.449 61.1061 189.033L20.4627 169.853C14.7712 167.167 7.92689 161.747 9.48842 155.65M157.563 140.872C157.563 140.617 157.56 140.354 157.552 140.085C157.544 139.814 157.532 139.536 157.516 139.252M157.516 139.252C168.037 151.456 162.784 162.965 146.902 170.478L95.0845 193.245C84.7995 197.765 70.3218 197.596 59.8995 192.836C59.8995 192.836 16.5924 174.151 11.3368 168.558C6.08111 162.965 9.48842 155.65 9.48842 155.65M30.4826 139.086L17.1467 146.822C12.8448 149.317 10.3161 152.419 9.48842 155.65" stroke="#5547A5" stroke-width="0.372"/>
<path d="M146.491 7.06027L124.005 46.4121L111.441 68.3981C109.429 71.9191 111.711 76.3446 115.746 76.7482L139.825 79.156L138.188 128.271C138.142 129.629 139.398 130.407 140.49 130.158C140.928 130.057 141.691 129.553 141.691 129.553L179.516 69.2781C180.599 67.5618 179.553 65.2995 177.544 65.0125L149.157 60.9573L149.568 34.4863L149.978 8.01526C149.989 7.30006 149.645 6.75365 149.157 6.43454C149.026 6.34863 148.885 6.2792 148.737 6.22738C147.954 5.95243 146.998 6.17325 146.491 7.06027Z" fill="#EE9C2E"/>
<path d="M166.89 50.6913L167.225 2.06727C167.234 0.761495 165.934 -0.149716 164.71 0.304307L148.737 6.22738C148.885 6.2792 149.026 6.34863 149.157 6.43454C149.645 6.75365 149.989 7.30006 149.978 8.01526L149.568 34.4863L149.157 60.9573L166.89 50.6913Z" fill="#F5C482"/>
<path d="M149.157 60.9573L177.544 65.0125L195.821 54.891L166.89 50.6913L149.157 60.9573Z" fill="#F5C482"/>
<path d="M177.544 65.0125C179.553 65.2995 180.599 67.5618 179.516 69.2781L197.793 59.1565C198.876 57.4402 197.83 55.178 195.821 54.891L177.544 65.0125Z" fill="#F8D7AB"/>
<path d="M179.516 69.2781L141.691 129.553L157.808 120.346C158.066 120.199 158.286 119.991 158.448 119.742L197.793 59.1565L179.516 69.2781Z" fill="#EE9C2E"/>
<path d="M141.691 129.553L179.516 69.2781M141.691 129.553C141.691 129.553 140.928 130.057 140.49 130.158C139.398 130.407 138.142 129.629 138.188 128.271L139.825 79.156L115.746 76.7481C111.711 76.3446 109.429 71.9191 111.441 68.3981L124.005 46.4121L146.491 7.06027C146.998 6.17325 147.954 5.95243 148.737 6.22738M141.691 129.553L157.808 120.346C158.066 120.199 158.286 119.991 158.448 119.742L197.793 59.1565M179.516 69.2781C180.599 67.5617 179.553 65.2995 177.544 65.0125M179.516 69.2781L197.793 59.1565M177.544 65.0125L149.157 60.9573M177.544 65.0125L195.821 54.891M149.157 60.9573L166.89 50.6913M149.157 60.9573L149.568 34.4863L149.978 8.01526C149.989 7.30005 149.645 6.75365 149.157 6.43454C149.026 6.34863 148.885 6.2792 148.737 6.22738M197.793 59.1565C198.876 57.4402 197.83 55.178 195.821 54.891M195.821 54.891L166.89 50.6913M166.89 50.6913L167.225 2.06727C167.234 0.761495 165.934 -0.149716 164.71 0.304307L148.737 6.22738" stroke="#BE7D25" stroke-width="0.372"/>
</svg>
