<svg width="28" height="28" viewBox="0 0 28 28" fill="none" xmlns="http://www.w3.org/2000/svg">
<path d="M12.2438 3.49829L9.32861 10.4948L13.993 25.654L18.6573 10.4948L15.7421 3.49829" stroke="#4A6F00" stroke-width="2.33218" stroke-linecap="round" stroke-linejoin="round"/>
<path d="M19.8237 3.49829C20.1858 3.49829 20.5429 3.58259 20.8667 3.74451C21.1906 3.90642 21.4722 4.14151 21.6895 4.43116L25.1877 9.09551C25.4878 9.49567 25.6512 9.98168 25.6539 10.4818C25.6567 10.982 25.4985 11.4697 25.2029 11.8731L15.8859 24.6838C15.6698 24.984 15.3855 25.2286 15.0563 25.3973C14.7272 25.566 14.3626 25.654 13.9927 25.654C13.6228 25.654 13.2583 25.566 12.9291 25.3973C12.5999 25.2286 12.3156 24.984 12.0996 24.6838L2.78253 11.8731C2.48705 11.4696 2.32913 10.9818 2.33207 10.4816C2.33501 9.98149 2.49866 9.49555 2.79885 9.09551L6.29479 4.43466C6.51189 4.14405 6.79379 3.9081 7.11808 3.74555C7.44237 3.583 7.80011 3.49834 8.16286 3.49829H19.8237Z" stroke="#4A6F00" stroke-width="2.33218" stroke-linecap="round" stroke-linejoin="round"/>
<path d="M2.33203 10.4949H25.6538" stroke="#4A6F00" stroke-width="2.33218" stroke-linecap="round" stroke-linejoin="round"/>
</svg>
