<svg width="1086" height="348" viewBox="0 0 1086 348" fill="none" xmlns="http://www.w3.org/2000/svg">
<g opacity="0.4">
<path d="M0 6C0 2.68629 2.68629 0 6 0V0C9.31371 0 12 2.68629 12 6V6C12 9.31371 9.31371 12 6 12V12C2.68629 12 0 9.31371 0 6V6Z" fill="#14EDB9"/>
</g>
<g opacity="0.2">
<path d="M185.347 339.757C185.347 335.339 188.929 331.757 193.347 331.757V331.757C197.765 331.757 201.347 335.339 201.347 339.757V339.757C201.347 344.176 197.765 347.757 193.347 347.757V347.757C188.929 347.757 185.347 344.176 185.347 339.757V339.757Z" fill="#D1FF5D"/>
</g>
<g opacity="0.3">
<path d="M1077.46 40.8486C1077.46 38.6395 1079.25 36.8486 1081.46 36.8486V36.8486C1083.67 36.8486 1085.46 38.6395 1085.46 40.8486V40.8486C1085.46 43.0578 1083.67 44.8486 1081.46 44.8486V44.8486C1079.25 44.8486 1077.46 43.0578 1077.46 40.8486V40.8486Z" fill="#73D3F1"/>
</g>
</svg>
