<svg width="574" height="414" viewBox="0 0 574 414" fill="none" xmlns="http://www.w3.org/2000/svg">
<path d="M549.792 15.9727C549.792 11.5544 553.373 7.97266 557.792 7.97266V7.97266C562.21 7.97266 565.792 11.5544 565.792 15.9727V15.9727C565.792 20.3909 562.21 23.9727 557.792 23.9727V23.9727C553.373 23.9727 549.792 20.3909 549.792 15.9727V15.9727Z" fill="#14EDB9"/>
<g opacity="0.01">
<path d="M541.819 15.9781C541.819 7.15363 548.972 0 557.797 0V0C566.621 0 573.775 7.15363 573.775 15.9781V15.9781C573.775 24.8025 566.621 31.9562 557.797 31.9562V31.9562C548.972 31.9562 541.819 24.8025 541.819 15.9781V15.9781Z" fill="#14EDB9"/>
</g>
<path d="M0 407.914C0 404.601 2.68629 401.914 6 401.914V401.914C9.31371 401.914 12 404.601 12 407.914V407.914C12 411.228 9.31371 413.914 6 413.914V413.914C2.68629 413.914 0 411.228 0 407.914V407.914Z" fill="#73D3F1"/>
</svg>
