<svg width="1028" height="436" viewBox="0 0 1028 436" fill="none" xmlns="http://www.w3.org/2000/svg">
<g opacity="0.3">
<path d="M1017.6 5C1017.6 2.23858 1019.84 0 1022.6 0V0C1025.37 0 1027.6 2.23858 1027.6 5V5C1027.6 7.76142 1025.37 10 1022.6 10V10C1019.84 10 1017.6 7.76142 1017.6 5V5Z" fill="#14EDB9"/>
</g>
<g opacity="0.2">
<path d="M0 428.334C0 424.468 3.13401 421.334 7 421.334V421.334C10.866 421.334 14 424.468 14 428.334V428.334C14 432.2 10.866 435.334 7 435.334V435.334C3.13401 435.334 0 432.2 0 428.334V428.334Z" fill="#73D3F1"/>
</g>
<g opacity="0.15">
<path d="M277.882 56.1416C277.882 53.9325 279.673 52.1416 281.882 52.1416V52.1416C284.091 52.1416 285.882 53.9325 285.882 56.1416V56.1416C285.882 58.3507 284.091 60.1416 281.882 60.1416V60.1416C279.673 60.1416 277.882 58.3507 277.882 56.1416V56.1416Z" fill="#D1FF5D"/>
</g>
</svg>
