<svg width="28" height="28" viewBox="0 0 28 28" fill="none" xmlns="http://www.w3.org/2000/svg">
<path d="M2.40443 14.3987C2.30725 14.1369 2.30725 13.849 2.40443 13.5872C3.35094 11.2921 4.9576 9.32981 7.0207 7.949C9.08381 6.56819 11.5105 5.83105 13.993 5.83105C16.4756 5.83105 18.9022 6.56819 20.9653 7.949C23.0284 9.32981 24.6351 11.2921 25.5816 13.5872C25.6788 13.849 25.6788 14.1369 25.5816 14.3987C24.6351 16.6938 23.0284 18.6561 20.9653 20.0369C18.9022 21.4177 16.4756 22.1548 13.993 22.1548C11.5105 22.1548 9.08381 21.4177 7.0207 20.0369C4.9576 18.6561 3.35094 16.6938 2.40443 14.3987Z" stroke="#73D3F1" stroke-width="2.33218" stroke-linecap="round" stroke-linejoin="round"/>
<path d="M13.9929 17.4914C15.9249 17.4914 17.4912 15.9252 17.4912 13.9931C17.4912 12.0611 15.9249 10.4949 13.9929 10.4949C12.0609 10.4949 10.4946 12.0611 10.4946 13.9931C10.4946 15.9252 12.0609 17.4914 13.9929 17.4914Z" stroke="#73D3F1" stroke-width="2.33218" stroke-linecap="round" stroke-linejoin="round"/>
</svg>
