<svg width="16" height="16" viewBox="0 0 16 16" fill="none" xmlns="http://www.w3.org/2000/svg">
<g clip-path="url(#clip0_247_474)">
<path d="M6.66238 13.3245C6.66233 13.4483 6.69677 13.5697 6.76185 13.675C6.82692 13.7803 6.92006 13.8654 7.03081 13.9208L8.36328 14.587C8.46488 14.6378 8.57776 14.6617 8.69123 14.6566C8.80469 14.6514 8.91495 14.6174 9.01154 14.5576C9.10813 14.4979 9.18785 14.4145 9.24312 14.3152C9.29838 14.216 9.32737 14.1043 9.32732 13.9907V9.32709C9.32746 8.9969 9.45021 8.67852 9.67176 8.43368L14.484 3.11114C14.5702 3.01558 14.6269 2.89707 14.6472 2.76996C14.6676 2.64284 14.6506 2.51255 14.5985 2.39486C14.5463 2.27717 14.4612 2.1771 14.3534 2.10677C14.2456 2.03643 14.1197 1.99884 13.9909 1.99854H1.99876C1.86991 1.99858 1.74384 2.03599 1.63583 2.10622C1.52781 2.17646 1.44247 2.27651 1.39016 2.39425C1.33784 2.512 1.32079 2.64239 1.34107 2.76963C1.36135 2.89687 1.41809 3.01549 1.50441 3.11114L6.31794 8.43368C6.53949 8.67852 6.66224 8.9969 6.66238 9.32709V13.3245Z" stroke="#46595E" stroke-width="1.33247" stroke-linecap="round" stroke-linejoin="round"/>
</g>
<defs>
<clipPath id="clip0_247_474">
<rect width="15.9896" height="15.9896" fill="white"/>
</clipPath>
</defs>
</svg>
