<svg width="28" height="28" viewBox="0 0 28 28" fill="none" xmlns="http://www.w3.org/2000/svg">
<path d="M2.33203 11.0778C2.33206 9.78021 2.72569 8.51311 3.46096 7.44391C4.19622 6.3747 5.23853 5.55367 6.4502 5.08927C7.66187 4.62486 8.98591 4.53892 10.2475 4.84281C11.509 5.14669 12.6487 5.82609 13.516 6.79129C13.5771 6.85661 13.6509 6.90868 13.733 6.94428C13.815 6.97988 13.9035 6.99825 13.9929 6.99825C14.0823 6.99825 14.1708 6.97988 14.2529 6.94428C14.3349 6.90868 14.4088 6.85661 14.4698 6.79129C15.3344 5.81982 16.4744 5.13471 17.738 4.82713C19.0015 4.51956 20.3288 4.60411 21.5432 5.06954C22.7575 5.53497 23.8013 6.3592 24.5356 7.43252C25.27 8.50585 25.66 9.77736 25.6538 11.0778C25.6538 13.7482 23.9047 15.7422 22.1555 17.4913L15.7514 23.6867C15.5341 23.9363 15.2662 24.1367 14.9655 24.2748C14.6648 24.4128 14.3381 24.4853 14.0072 24.4874C13.6764 24.4895 13.3488 24.4212 13.0464 24.287C12.7439 24.1527 12.4735 23.9557 12.2531 23.7089L5.8303 17.4913C4.08116 15.7422 2.33203 13.7598 2.33203 11.0778Z" stroke="#14EDB9" stroke-width="2.33218" stroke-linecap="round" stroke-linejoin="round"/>
</svg>
