<svg width="18" height="18" viewBox="0 0 18 18" fill="none" xmlns="http://www.w3.org/2000/svg">
<g clip-path="url(#clip0_461_221)">
<path d="M11.9909 15.7377V14.2389C11.9909 13.4439 11.6751 12.6814 11.1129 12.1192C10.5507 11.557 9.78827 11.2412 8.99324 11.2412H4.49671C3.70167 11.2412 2.9392 11.557 2.37703 12.1192C1.81485 12.6814 1.49902 13.4439 1.49902 14.2389V15.7377" stroke="#73D3F1" stroke-width="1.49884" stroke-linecap="round" stroke-linejoin="round"/>
<path d="M11.9907 2.34424C12.6335 2.51089 13.2028 2.88627 13.6092 3.41146C14.0156 3.93665 14.2361 4.58193 14.2361 5.246C14.2361 5.91007 14.0156 6.55534 13.6092 7.08053C13.2028 7.60573 12.6335 7.98111 11.9907 8.14776" stroke="#73D3F1" stroke-width="1.49884" stroke-linecap="round" stroke-linejoin="round"/>
<path d="M16.487 15.738V14.2391C16.4865 13.5749 16.2655 12.9297 15.8585 12.4048C15.4516 11.8798 14.8819 11.5049 14.2388 11.3389" stroke="#73D3F1" stroke-width="1.49884" stroke-linecap="round" stroke-linejoin="round"/>
<path d="M6.74476 8.24366C8.40033 8.24366 9.74244 6.90155 9.74244 5.24598C9.74244 3.5904 8.40033 2.24829 6.74476 2.24829C5.08918 2.24829 3.74707 3.5904 3.74707 5.24598C3.74707 6.90155 5.08918 8.24366 6.74476 8.24366Z" stroke="#73D3F1" stroke-width="1.49884" stroke-linecap="round" stroke-linejoin="round"/>
</g>
<defs>
<clipPath id="clip0_461_221">
<rect width="17.9861" height="17.9861" fill="white"/>
</clipPath>
</defs>
</svg>
