<svg width="18" height="18" viewBox="0 0 18 18" fill="none" xmlns="http://www.w3.org/2000/svg">
<g clip-path="url(#clip0_461_482)">
<path d="M14.9883 9.74251C14.9883 13.4896 12.3653 15.3632 9.24773 16.4498C9.08448 16.5051 8.90715 16.5025 8.74562 16.4423C5.62053 15.3632 2.99756 13.4896 2.99756 9.74251V4.49656C2.99756 4.2978 3.07652 4.10718 3.21706 3.96664C3.3576 3.82609 3.54822 3.74714 3.74698 3.74714C5.24582 3.74714 7.11938 2.84783 8.42337 1.70871C8.58214 1.57306 8.78411 1.49854 8.99293 1.49854C9.20175 1.49854 9.40372 1.57306 9.56249 1.70871C10.874 2.85532 12.74 3.74714 14.2389 3.74714C14.4376 3.74714 14.6283 3.82609 14.7688 3.96664C14.9093 4.10718 14.9883 4.2978 14.9883 4.49656V9.74251Z" stroke="#1D4D5A" stroke-width="1.49884" stroke-linecap="round" stroke-linejoin="round"/>
</g>
<defs>
<clipPath id="clip0_461_482">
<rect width="17.9861" height="17.9861" fill="white"/>
</clipPath>
</defs>
</svg>
