<svg width="12" height="12" viewBox="0 0 12 12" fill="none" xmlns="http://www.w3.org/2000/svg">
<g clip-path="url(#clip0_353_149)">
<path d="M7 7.38V1.75C7 1.41848 6.8683 1.10054 6.63388 0.866117C6.39946 0.631696 6.08152 0.5 5.75 0.5C5.41848 0.5 5.10054 0.631696 4.86612 0.866117C4.6317 1.10054 4.5 1.41848 4.5 1.75V7.38C4.09864 7.64817 3.79416 8.03831 3.63154 8.4928C3.46891 8.94729 3.45676 9.44203 3.59688 9.90395C3.737 10.3659 4.02196 10.7705 4.40967 11.058C4.79738 11.3456 5.26729 11.5008 5.75 11.5008C6.23271 11.5008 6.70262 11.3456 7.09033 11.058C7.47804 10.7705 7.763 10.3659 7.90312 9.90395C8.04324 9.44203 8.03109 8.94729 7.86846 8.4928C7.70584 8.03831 7.40136 7.64817 7 7.38Z" stroke="#1D4D5A" stroke-width="1.6" stroke-linecap="round" stroke-linejoin="round"/>
</g>
<defs>
<clipPath id="clip0_353_149">
<rect width="12" height="12" fill="white"/>
</clipPath>
</defs>
</svg>
